<svg xmlns="http://www.w3.org/2000/svg" viewBox="0 0 1920 1080" preserveAspectRatio="xMidYMid slice">
  <defs>
    <linearGradient id="sky" x1="0" y1="0" x2="1" y2="1">
      <stop offset="0" stop-color="#0f3d3e"/>
      <stop offset="0.55" stop-color="#14532d"/>
      <stop offset="1" stop-color="#042f2e"/>
    </linearGradient>
    <radialGradient id="sun" cx="28%" cy="24%" r="50%">
      <stop offset="0" stop-color="#fbbf24" stop-opacity="0.55"/>
      <stop offset="0.45" stop-color="#f59e0b" stop-opacity="0.18"/>
      <stop offset="1" stop-color="#f59e0b" stop-opacity="0"/>
    </radialGradient>
    <linearGradient id="river" x1="0" y1="0" x2="1" y2="0">
      <stop offset="0" stop-color="#0e7490" stop-opacity="0.55"/>
      <stop offset="0.5" stop-color="#22d3ee" stop-opacity="0.25"/>
      <stop offset="1" stop-color="#115e59" stop-opacity="0.5"/>
    </linearGradient>
  </defs>
  <rect width="1920" height="1080" fill="url(#sky)"/>
  <rect width="1920" height="1080" fill="url(#sun)"/>
  <path d="M0 760 C250 690 430 725 640 760 C890 802 1100 820 1360 742 C1570 679 1740 710 1920 760 L1920 1080 L0 1080 Z" fill="url(#river)"/>
  <path d="M0 624 C260 520 420 520 620 610 C820 700 1040 650 1220 560 C1480 430 1700 500 1920 590 L1920 760 C1700 675 1490 660 1260 720 C1020 785 810 760 590 700 C360 637 170 665 0 740 Z" fill="#064e3b" opacity="0.82"/>
  <g opacity="0.55" fill="#022c22">
    <path d="M80 0 h90 v1080 h-90z" transform="rotate(16 80 0)"/>
    <path d="M310 0 h70 v1080 h-70z" transform="rotate(-10 310 0)"/>
    <path d="M1720 0 h85 v1080 h-85z" transform="rotate(-14 1720 0)"/>
  </g>
  <g fill="#166534" opacity="0.65">
    <ellipse cx="180" cy="190" rx="260" ry="70" transform="rotate(-22 180 190)"/>
    <ellipse cx="420" cy="120" rx="240" ry="60" transform="rotate(18 420 120)"/>
    <ellipse cx="1540" cy="140" rx="300" ry="80" transform="rotate(-18 1540 140)"/>
    <ellipse cx="1790" cy="260" rx="260" ry="70" transform="rotate(24 1790 260)"/>
  </g>
  <path d="M0 0h1920v1080H0z" fill="#000" opacity="0.22"/>
</svg>
